<svg xmlns="http://www.w3.org/2000/svg" width="100" height="100" fill="none" viewBox="0 0 100 100"><path fill="#FCFCFC" d="M100 50c0-27.6142-22.3858-50-50-50S0 22.3858 0 50s22.3858 50 50 50 50-22.3858 50-50Z"/><path fill="#131316" fill-rule="evenodd" d="M59.8161 34.6153c.673-.6731.1963-1.8241-.7556-1.8241H20.9461c-.952 0-1.4287 1.151-.7556 1.8241l10.6848 10.6849c.0993.0992.178.217.2316.3466.0537.1296.0814.2686.0813.4089v14.6078c0 .9519 1.151 1.4286 1.8241.7556l26.8038-26.8038ZM41.0259 66.2272c-.6731.6731-.1963 1.824.7555 1.824h38.1144c.952 0 1.4287-1.1509.7556-1.824L69.9666 55.5424c-.2004-.2004-.313-.4721-.313-.7555V40.179c0-.9519-1.1509-1.4287-1.8239-.7555L41.0259 66.2272Z" clip-rule="evenodd"/></svg>